<svg width="16" height="16" viewBox="0 0 16 16" fill="currentColor" xmlns="http://www.w3.org/2000/svg">
<path d="M13.1978 9.14052L8.61445 13.3072C8.53372 13.3801 8.43476 13.4166 8.3332 13.4166C8.23164 13.4166 8.13219 13.3808 8.05273 13.3083L3.4694 9.14167C3.29943 8.98688 3.28682 8.72386 3.44143 8.55459C3.59646 8.38287 3.86044 8.37229 4.03023 8.5261L7.91654 12.0572V2.58323C7.91654 2.35292 8.10289 2.19 8.30976 2.19C8.51664 2.19 8.74987 2.35302 8.74987 2.58323V12.0572L12.6353 8.52334C12.805 8.36953 13.0691 8.38011 13.2241 8.55183C13.3801 8.72386 13.3671 8.98688 13.1978 9.14052Z"/>
</svg>
