<svg width="24" height="24" viewBox="0 0 24 24" fill="#3E3F48" xmlns="http://www.w3.org/2000/svg" >
<g clip-path="url(#clip0_3_4294)">
<path d="M20.4289 15.0781C19.3352 14.043 18.5 12.9539 18.5 9.26172C18.5 6.15117 16.0242 3.61719 12.875 3.30859V2.625C12.8742 2.27832 12.5969 2 12.2492 2C11.9016 2 11.6242 2.27832 11.6242 2.625V3.30859C8.4758 3.61641 5.96408 6.15234 5.96408 9.26172C5.96408 12.9531 5.12893 14.043 4.03518 15.0781C3.48831 15.6008 3.31721 16.3867 3.59573 17.0801C3.91409 17.793 4.59768 18.25 5.37385 18.25H19.1238C19.9004 18.25 20.584 17.791 20.8672 17.1133C21.1477 16.3867 20.9758 15.5977 20.4289 15.0781ZM19.1242 17H5.37385C4.81721 17 4.5387 16.3555 4.92932 16.0195C6.29182 14.7207 7.24885 13.2703 7.24885 9.29688C7.21408 6.62891 9.48361 4.5 12.2492 4.5C15.0149 4.5 17.2492 6.62891 17.2492 9.26172C17.2492 13.2227 18.1965 14.6836 19.5688 15.9844C19.9602 16.3594 19.675 17 19.1242 17ZM14.1281 19.5C13.8376 19.5 13.5672 19.662 13.468 19.925C13.2883 20.4062 12.8078 20.75 12.2141 20.75C11.6203 20.75 11.1746 20.4053 10.9934 19.925C10.9289 19.6602 10.6594 19.5 10.3664 19.5C9.95197 19.5 9.64884 19.8905 9.77736 20.2703C10.1164 21.2734 11.0969 22 12.2141 22C13.3652 22 14.3453 21.2723 14.6836 20.2703C14.8469 19.8555 14.5461 19.5 14.1281 19.5Z" />
</g>
<defs>
<clipPath id="clip0_3_4294">
<rect width="17.5" height="20" fill="white" transform="translate(3.5 2)"/>
</clipPath>
</defs>
</svg>
