<svg width="24" height="24" viewBox="0 0 24 24" fill="#3E3F48" xmlns="http://www.w3.org/2000/svg">
<path d="M18.2695 6.89454L14.1094 2.73438C13.6367 2.26336 13.0039 2 12.3398 2L6.5 2C5.11914 2 4 3.11914 4 4.5L4.00025 19.5C4.00025 20.8809 5.11939 22 6.50025 22H16.5C17.8809 22 19 20.8809 19 19.5V8.66016C19 7.9961 18.7383 7.36329 18.2695 6.89454ZM12.75 3.33125C12.9249 3.39243 13.0885 3.48149 13.2234 3.61637L17.3836 7.77653C17.5195 7.91016 17.6094 8.07422 17.668 8.25H13.375C13.0312 8.25 12.75 7.96875 12.75 7.625V3.33125ZM17.75 19.5C17.75 20.1891 17.1891 20.75 16.5 20.75H6.5C5.81094 20.75 5.25 20.1891 5.25 19.5V4.5C5.25 3.81094 5.81094 3.25 6.5 3.25H11.5V7.625C11.5 8.66016 12.3398 9.5 13.375 9.5H17.75V19.5ZM7.75 12.625C7.75 12.9688 8.03125 13.25 8.375 13.25H14.625C14.9688 13.25 15.25 12.9688 15.25 12.625C15.25 12.2813 14.9688 12 14.625 12H8.375C8.03125 12 7.75 12.2813 7.75 12.625ZM14.625 14.5H8.375C8.03125 14.5 7.75 14.7813 7.75 15.125C7.75 15.4688 8.03125 15.75 8.375 15.75H14.625C14.9702 15.75 15.25 15.4702 15.25 15.125C15.25 14.7798 14.9688 14.5 14.625 14.5ZM14.625 17H8.375C8.03125 17 7.75 17.2813 7.75 17.625C7.75 17.9688 8.03125 18.25 8.375 18.25H14.625C14.9702 18.25 15.25 17.9702 15.25 17.625C15.25 17.2798 14.9688 17 14.625 17Z" />
</svg>
