<svg width="24" height="24" viewBox="0 0 24 24" fill="currentColor" xmlns="http://www.w3.org/2000/svg">
<path d="M11.9652 22C9.77578 22 8.99688 21.5574 8.99688 20.5961V19.0508C8.4043 18.8018 7.85039 18.4832 7.34219 18.0973L6.00234 18.8699C5.82184 18.9755 5.61266 19.0267 5.40234 19.0267C3.96836 19.0267 2.42383 15.3989 2.42383 14.7845C2.42383 14.3607 2.65062 13.9509 3.0375 13.7271L4.37227 12.9568C4.36445 12.6289 4.34375 12.3125 4.34375 11.9648C4.34375 11.6172 4.3645 11.3348 4.40723 11.009L3.07148 10.2734C2.68516 10.0508 2.45859 9.64062 2.45859 9.21484C2.45859 8.72344 3.94219 4.96875 5.43516 4.96875C5.64676 4.96875 5.85781 5.02102 6.04141 5.12934L7.37539 5.90156C7.8832 5.51602 8.43789 5.19727 8.99648 4.94805V3.40273C8.99648 2.16934 10.4262 2 12.0004 2C13.5516 2 14.934 2.15949 14.934 3.40273V4.94805C15.5266 5.19707 16.0805 5.51562 16.5887 5.90156L17.9285 5.12891C18.109 5.02332 18.3184 4.97215 18.5289 4.97215C19.9535 4.97215 21.507 8.58738 21.507 9.21434C21.507 9.63816 21.2802 10.0479 20.8934 10.2718L19.5586 11.0421C19.6013 11.368 19.6221 11.6843 19.6221 11.9979C19.6221 12.3116 19.6013 12.628 19.5586 12.9538L20.8941 13.7253C21.2807 13.948 21.5074 14.3577 21.5074 14.7819C21.5074 15.2737 20.0238 19.028 18.5305 19.028C18.3188 19.028 18.1074 18.9757 17.9246 18.8674L16.5891 18.0971C16.0805 18.4829 15.527 18.8014 14.9344 19.0506V20.5959C14.9691 21.5547 14.1918 22 11.9652 22ZM7.5043 16.5781C8.90742 17.782 9.54883 17.9203 10.2797 18.1797V20.5957C10.8309 20.6873 11.4055 20.7413 11.9891 20.7413C12.573 20.7413 13.166 20.6873 13.7543 20.5627L13.7171 18.1799C14.3448 17.9572 15.0913 17.7807 16.4925 16.5784L18.5866 17.7881C19.3202 16.9264 19.9057 15.9143 20.2815 14.7971L18.2135 13.6034C18.3208 13.0178 18.4034 12.61 18.4034 12.0772C18.4034 11.6495 18.3501 11.1409 18.2135 10.3952L20.3018 9.19008C19.9179 8.10609 19.3284 7.08187 18.5401 6.1932L16.4921 7.42016C15.0889 6.21625 14.4475 6.07797 13.7167 5.81859V3.40273C13.1655 3.31117 12.5909 3.25715 12.0073 3.25715C11.4233 3.25715 10.8303 3.31117 10.2421 3.4357L10.2793 5.81852C9.65273 6.04297 8.90664 6.18359 7.5043 7.42188L5.41172 6.21094C4.66992 7.08242 4.08047 8.10664 3.70508 9.23711L5.78477 10.3957C5.67773 10.9805 5.59492 11.3906 5.59492 11.8867C5.59492 12.3145 5.6482 12.823 5.78473 13.5688L3.69645 14.7738C4.08039 15.8578 4.66988 16.882 5.45816 17.7707L7.5043 16.5781ZM12.0004 15.7148C9.93242 15.7148 8.25039 14.0328 8.25039 11.9648C8.25039 9.89688 9.93398 8.21484 12.0004 8.21484C14.0668 8.21484 15.7504 9.89688 15.7504 11.9648C15.7504 14.0328 14.0668 15.7148 12.0004 15.7148ZM12.0004 9.46484C10.6215 9.46484 9.50039 10.5867 9.50039 11.9648C9.50039 13.343 10.6215 14.4648 12.0004 14.4648C13.3793 14.4648 14.5004 13.343 14.5004 11.9648C14.5004 10.5867 13.3793 9.46484 12.0004 9.46484Z" />
</svg>
