<svg width="24" height="24" viewBox="0 0 24 24" fill="#3E3F48" xmlns="http://www.w3.org/2000/svg">
<path d="M22.9641 12.0001C22.9641 11.8269 22.8926 11.6548 22.7523 11.5314L12.1624 2.15638C12.0446 2.05263 11.8969 2.00024 11.7491 2.00024C11.6014 2.00024 11.4523 2.05263 11.3352 2.15638L0.745318 11.5314C0.570748 11.6564 0.499268 11.8283 0.499268 12.0001C0.499268 12.3486 0.782002 12.6247 1.12583 12.6247C1.27259 12.6247 1.41958 12.5734 1.53755 12.4688L2.99927 11.1789L2.99948 18.8742C2.99962 20.5978 4.40157 22.0001 6.12422 22.0001H17.3391C19.0621 22.0001 20.4289 20.599 20.4289 18.9103L20.429 11.215L21.9602 12.4689C22.0813 12.5743 22.2258 12.6251 22.3391 12.6251C22.7141 12.6251 22.9641 12.3478 22.9641 12.0001ZM19.2141 10.1251V18.8751C19.2141 19.9091 18.3731 20.7501 17.3742 20.7501H6.12422C5.09024 20.7501 4.28438 19.9091 4.28438 18.8751V10.1251C4.28438 10.1104 4.27698 10.0981 4.27599 10.0836L11.7492 3.45872L19.257 10.0837C19.257 10.0978 19.2141 10.1095 19.2141 10.1251Z" />
</svg>
